<svg xmlns="http://www.w3.org/2000/svg" width="1200" height="900" viewBox="0 0 1200 900" role="img" aria-labelledby="t"><title id="t">Personalized wellness dashboard illustration</title><defs><linearGradient id="bg" x1="0" y1="0" x2="1" y2="1"><stop stop-color="#111A44"/><stop offset="1" stop-color="#0A1133"/></linearGradient><linearGradient id="g" x1="0" y1="0" x2="1" y2="1"><stop stop-color="#7AC7C8"/><stop offset=".38" stop-color="#9971B1"/><stop offset=".7" stop-color="#EC437D"/><stop offset="1" stop-color="#F4946E"/></linearGradient><filter id="b"><feGaussianBlur stdDeviation="45"/></filter></defs><rect width="1200" height="900" rx="64" fill="url(#bg)"/><circle cx="905" cy="165" r="185" fill="#EC437D" opacity=".2" filter="url(#b)"/><circle cx="260" cy="760" r="210" fill="#7AC7C8" opacity=".17" filter="url(#b)"/><rect x="105" y="95" width="990" height="710" rx="42" fill="#fff" fill-opacity=".055" stroke="#fff" stroke-opacity=".12"/><rect x="155" y="150" width="360" height="280" rx="30" fill="#fff" fill-opacity=".07"/><circle cx="335" cy="280" r="96" fill="url(#g)"/><path d="M284 303c19-53 56-84 107-98-13 59-44 98-95 118 43 6 77 24 101 57-58-4-97-29-117-77z" fill="#fff" fill-opacity=".9"/><rect x="555" y="150" width="490" height="126" rx="26" fill="#fff" fill-opacity=".07"/><rect x="595" y="188" width="240" height="18" rx="9" fill="#fff" fill-opacity=".8"/><rect x="595" y="222" width="360" height="12" rx="6" fill="#fff" fill-opacity=".25"/><rect x="555" y="310" width="490" height="120" rx="26" fill="#fff" fill-opacity=".07"/><path d="M602 386c55-52 102-45 145-12 54 42 106 36 148-28 34-52 73-47 105-5" fill="none" stroke="url(#g)" stroke-width="12" stroke-linecap="round"/><rect x="155" y="470" width="890" height="275" rx="30" fill="#fff" fill-opacity=".06"/><g fill="#fff" fill-opacity=".12"><rect x="205" y="525" width="240" height="165" rx="24"/><rect x="480" y="525" width="240" height="165" rx="24"/><rect x="755" y="525" width="240" height="165" rx="24"/></g><g fill="url(#g)"><circle cx="325" cy="585" r="28"/><circle cx="600" cy="585" r="28"/><circle cx="875" cy="585" r="28"/></g></svg>
